# xmcd CD database file
#
# Track frame offsets:
#	150
#	10479
#	17543
#	31299
#	42739
#	57081
#	70763
#	83281
#	96647
#	110826
#	125178
#	137009
#	150118
#	164370
#	178390
#	192529
#	205087
#	217580
#
# Disc length: 3106 seconds
#
# Revision: 0
# Processed by: cddbd v1.5PL3 Copyright (c) Steve Scherf et al.
# Submitted via: CDex 1.60beta1
#
DISCID=f90c2012
DTITLE=Dodo Marmarosa - Up in Dodo's Room
DYEAR=1996
DGENRE=Jazz
TTITLE0=Deep Purple
TTITLE1=Tea for Two
TTITLE2=Bird Lore
TTITLE3=Dialated Pupils [alternate take]
TTITLE4=Up in Dodo's Room [alternate take]
TTITLE5=Tone Paintings I
TTITLE6=Tone Paintings II
TTITLE7=Bopmatism [Master Take]
TTITLE8=Dodo's Dance [Master Take]
TTITLE9=Trade Winds [Master Take]
TTITLE10=Dary Departs [Master Take]
TTITLE11=Cosmo Street [Master Take]
TTITLE12=Bopmatism [alternate take]
TTITLE13=Dodo's Dance [alternate take]
TTITLE14=Trade Winds [alternate take]
TTITLE15=Dary Departs [alternate take]
TTITLE16=Dary Departs [alternate take]
TTITLE17=Cosmo Street [alternate take]
EXTD=YEAR: 1996
EXTT0=
EXTT1=
EXTT2=
EXTT3=
EXTT4=
EXTT5=
EXTT6=
EXTT7=
EXTT8=
EXTT9=
EXTT10=
EXTT11=
EXTT12=
EXTT13=
EXTT14=
EXTT15=
EXTT16=
EXTT17=
PLAYORDER=
